<?xml version="1.0" encoding="utf-8"?>
<!-- Generator: Adobe Illustrator 19.1.1, SVG Export Plug-In . SVG Version: 6.00 Build 0)  -->
<svg version="1.1" id="Layer_1" xmlns="http://www.w3.org/2000/svg" xmlns:xlink="http://www.w3.org/1999/xlink" x="0px" y="0px"
	 viewBox="-244 342 123 110" style="enable-background:new -244 342 123 110;" xml:space="preserve">
<style type="text/css">
	.st0{fill:#135BA9;}
</style>
<path class="st0" d="M-123.4,370.4l-25-25.8c-1.7-1.7-3.8-2.6-6-2.6c-2.2,0-4.3,0.9-5.9,2.5l-5.9,6.1c-0.9,0.9-1.6,2-2,3.2
	l-27.5-5.1l0,0c-12.4-2.5-24.5,5.8-27,18.5l-1.3,6.5c-1.4,7.2,3.1,14.2,10.1,15.6c7,1.4,13.8-3.2,15.2-10.4l0.8-4l12.3,1.1
	l32.2,33.2l5.8,6c1.2,1.2,1.2,3.2,0,4.4c-1.2,1.2-3.1,1.2-4.3,0l-15.6-15.9c-1.1-1.1-2.9-1.1-3.9,0c-1.1,1.1-1.1,2.9,0,4.1
	l15.7,16.1c0.6,0.6,0.9,1.4,0.9,2.2c0,0.8-0.3,1.6-0.9,2.2c-1.2,1.2-3.1,1.2-4.3,0l-15.7-16.1c-1.1-1.1-2.9-1.1-3.9,0
	c-1.1,1.1-1.1,2.9,0,4.1l15.6,16.1c1.2,1.2,1.2,3.2,0,4.4c-0.6,0.6-1.3,0.9-2.1,0.9c-0.8,0-1.6-0.3-2.1-0.9l-15.7-16.1
	c-1.1-1.1-2.9-1.1-3.9,0c-1.1,1.1-1.1,2.9,0,4.1l15.7,16.1c1.2,1.2,1.2,3.2,0,4.4s-3.1,1.2-4.3,0l-55.5-57.1l-7.3-7.5
	c-1.1-1.1-2.9-1.1-3.9,0c-1.1,1.1-1.1,2.9,0,4.1l7.3,7.5l8,8.2l-4.5,4.5c-1.4,1.5-2.2,3.5-2.2,5.5c0,2.1,0.8,4.1,2.2,5.5l1.4,1.5
	c1.3,1.3,2.9,2.1,4.6,2.3c0.2,1.8,0.9,3.5,2.2,4.8l1.4,1.5c1.3,1.3,2.9,2.1,4.6,2.3c0.2,1.8,0.9,3.5,2.2,4.8l1.4,1.5
	c1.3,1.3,2.9,2.1,4.6,2.3c0.2,1.8,0.9,3.5,2.2,4.8l1.4,1.5c1.5,1.5,3.4,2.3,5.4,2.3c1.9,0,3.9-0.8,5.4-2.3l4.4-4.5l10.5,10.8
	c1.6,1.7,3.8,2.6,6.1,2.6c2.3,0,4.5-0.9,6.1-2.6c1.5-1.6,2.4-3.7,2.5-5.9c2.2-0.1,4.2-1,5.7-2.6c1.6-1.6,2.4-3.8,2.5-5.9
	c2.1-0.1,4.1-0.9,5.7-2.6c1.6-1.6,2.4-3.8,2.5-5.9c2.1-0.1,4.1-0.9,5.7-2.6c3.4-3.5,3.4-9.1,0-12.6l-3.9-4l14.2-14.6l9.8-10.2
	C-120.2,379.2-120.2,373.7-123.4,370.4L-123.4,370.4z M-228.3,412c-0.8-0.8-0.8-2.1,0-2.9l4.1-4.2l4.3,4.4l-4.1,4.2
	c-0.8,0.8-2.1,0.8-2.9,0L-228.3,412z M-220.1,420.5c-0.8-0.8-0.8-2.1,0-2.9l4.1-4.2l4.3,4.4l-4.1,4.2c-0.8,0.8-2.1,0.8-2.9,0
	L-220.1,420.5z M-211.9,429c-0.4-0.4-0.6-0.9-0.6-1.5s0.2-1.1,0.6-1.5l4.1-4.2l4.3,4.4l-4.1,4.2c-0.8,0.8-2.1,0.8-2.9,0L-211.9,429
	L-211.9,429z M-199.3,439c-0.8,0.8-2.1,0.8-2.9,0l-1.4-1.5c-0.8-0.8-0.8-2.1,0-2.9l4.1-4.2l4.3,4.4L-199.3,439z M-151.4,403.3
	l-31-32c-0.5-0.5-1.1-0.8-1.7-0.8l-15.9-1.4c-0.1,0-0.2,0-0.2,0c-1.3,0-2.5,1-2.7,2.3l-1.3,6.5c-0.8,4.1-4.6,6.7-8.6,5.9
	c-1.9-0.4-3.6-1.5-4.6-3.2c-1.1-1.7-1.5-3.7-1.1-5.6l1.3-6.5c1.9-9.7,11.1-16,20.5-14c0,0,0,0,0.1,0l27.1,5l3.3,3.4l27,27.9
	L-151.4,403.3z M-127.4,378.5l-7.9,8.1l-27-27.9c-0.5-0.5-0.8-1.3-0.8-2c0-0.8,0.3-1.5,0.8-2l5.9-6.1c0.5-0.5,1.2-0.8,2-0.8
	c0.8,0,1.5,0.3,2,0.8l25,25.8c0.5,0.5,0.8,1.3,0.8,2C-126.6,377.2-126.9,378-127.4,378.5L-127.4,378.5z"/>
</svg>
