<?xml version="1.0" encoding="utf-8"?>
<!-- Generator: Adobe Illustrator 19.1.1, SVG Export Plug-In . SVG Version: 6.00 Build 0)  -->
<svg version="1.1" id="Layer_1" xmlns="http://www.w3.org/2000/svg" xmlns:xlink="http://www.w3.org/1999/xlink" x="0px" y="0px"
	 viewBox="0 0 117 110" style="enable-background:new 0 0 117 110;" xml:space="preserve">
<style type="text/css">
	.st0{fill:#135BAA;}
</style>
<path class="st0" d="M27.7,110c-4.9,0-9-1.9-12-5.7c-0.9-1.1-0.8-2.8,0.4-3.8c1.1-0.9,2.8-0.8,3.7,0.4c4.9,6.1,12.4,3.7,23.1-0.6
	c5.5-2.2,10.7-4.3,15.5-4.4c0,0,0,0,0,0h0h0h0h0c0,0,0,0,0,0c4.8,0,10,2.1,15.5,4.4c10.8,4.4,18.2,6.7,23.1,0.6
	c0.9-1.1,2.6-1.3,3.7-0.4c1.1,0.9,1.3,2.6,0.4,3.8c-3.5,4.3-8.3,6.2-14.3,5.5c-4.9-0.5-10-2.6-14.9-4.6c-5-2-9.8-3.9-13.5-4
	c-3.8,0-8.5,2-13.5,4c-4.9,2-10,4.1-14.9,4.6C29.2,110,28.5,110,27.7,110z M89.1,97.7c-0.7,0-1.5,0-2.2-0.1C82,97,76.9,95,72,93
	c-5-2-9.8-3.9-13.5-4c-3.8,0-8.5,2-13.5,4C40,95,34.9,97,30,97.6c-6,0.6-10.8-1.2-14.3-5.5c-0.9-1.1-0.8-2.8,0.4-3.8
	c1.1-0.9,2.8-0.8,3.7,0.4c4.9,6.1,12.4,3.7,23.1-0.6c5.5-2.2,10.7-4.3,15.5-4.4c0,0,0,0,0,0h0h0h0h0c0,0,0,0,0,0
	c4.8,0,10,2.1,15.5,4.4c10.8,4.4,18.2,6.7,23.1,0.6c0.9-1.1,2.6-1.3,3.7-0.4c1.1,0.9,1.3,2.6,0.4,3.8C98.1,95.8,94.1,97.7,89.1,97.7
	z M83.7,84.2c-0.5,0-1.1-0.2-1.6-0.5L58.5,66.2L34.8,83.7c-0.9,0.7-2.2,0.7-3.1,0c-0.9-0.7-1.3-1.9-1-3l9.1-28.3L16.1,35
	c-0.9-0.7-1.3-1.9-1-3c0.4-1.1,1.4-1.9,2.5-1.9c0,0,0,0,0,0L47,30.2l9-28.3C56.3,0.8,57.4,0,58.5,0s2.2,0.8,2.5,1.9l9,28.3l29.3-0.1
	c0,0,0,0,0,0c1.1,0,2.2,0.7,2.5,1.9c0.4,1.1,0,2.3-1,3L77.1,52.4l9.1,28.3c0.4,1.1,0,2.3-1,3C84.8,84.1,84.3,84.2,83.7,84.2z
	 M25.8,35.5l18.7,13.7c0.9,0.7,1.3,1.9,1,3l-7.2,22.2l18.6-13.8c0.9-0.7,2.2-0.7,3.1,0l18.6,13.8l-7.2-22.2c-0.4-1.1,0-2.3,1-3
	l18.7-13.7l-23,0c0,0,0,0,0,0c-1.1,0-2.2-0.8-2.5-1.9l-7.1-22.3l-7.1,22.3c-0.4,1.1-1.4,1.9-2.5,1.9c0,0,0,0,0,0L25.8,35.5z
	 M99.4,74.8h-5.3c-1.5,0-2.6-1.2-2.6-2.7c0-1.5,1.2-2.7,2.6-2.7h5.3c1.5,0,2.6,1.2,2.6,2.7C102.1,73.6,100.9,74.8,99.4,74.8z
	 M22.8,74.8h-5.3c-1.5,0-2.6-1.2-2.6-2.7c0-1.5,1.2-2.7,2.6-2.7h5.3c1.5,0,2.6,1.2,2.6,2.7C25.5,73.6,24.3,74.8,22.8,74.8z
	 M105.8,64.2H90c-1.5,0-2.6-1.2-2.6-2.7c0-1.5,1.2-2.7,2.6-2.7h15.9c1.5,0,2.6,1.2,2.6,2.7C108.5,63,107.3,64.2,105.8,64.2z
	 M27,64.2H11.2c-1.5,0-2.6-1.2-2.6-2.7c0-1.5,1.2-2.7,2.6-2.7H27c1.5,0,2.6,1.2,2.6,2.7C29.7,63,28.5,64.2,27,64.2z M114.4,53.6
	H94.2c-1.5,0-2.6-1.2-2.6-2.7c0-1.5,1.2-2.7,2.6-2.7h20.2c1.5,0,2.6,1.2,2.6,2.7C117,52.4,115.8,53.6,114.4,53.6z M22.8,53.6H2.6
	c-1.5,0-2.6-1.2-2.6-2.7c0-1.5,1.2-2.7,2.6-2.7h20.2c1.5,0,2.6,1.2,2.6,2.7C25.5,52.4,24.3,53.6,22.8,53.6z"/>
</svg>
