<?xml version="1.0" encoding="utf-8"?>
<!-- Generator: Adobe Illustrator 19.1.1, SVG Export Plug-In . SVG Version: 6.00 Build 0)  -->
<svg version="1.1" id="Layer_1" xmlns="http://www.w3.org/2000/svg" xmlns:xlink="http://www.w3.org/1999/xlink" x="0px" y="0px"
	 viewBox="0 0 112 110" style="enable-background:new 0 0 112 110;" xml:space="preserve">
<style type="text/css">
	.st0{fill-rule:evenodd;clip-rule:evenodd;fill:#135BAA;}
</style>
<path class="st0" d="M110.9,76.9c-1.5,1.5-3.9,1.5-5.4,0L90.7,61.8c-1.5-1.5-4.9-3-7-3H44.9c-1,0-1.9,0.9-1.9,1.9V62
	c0,1,0.9,1.9,1.9,1.9h13.7c4.4,0,5.9,2.5,6.4,3.6c0.4,1.1,1.1,3.9-2,7.1l-4.5,4.6c-3.1,3.1-8.6,5-12.9,4.4l-32.6-4.7
	c-1.5-0.2-3.2,0.1-4.4,0.6l33.2,14.5c2.1,0.9,6.1,1.3,8.4,0.7l14-3.6c2.8-0.7,7.5-2.3,10.1-3.5l3.7-1.7c4.3-2,10.2-0.7,13.4,2.9
	l13.4,14.9c1.4,1.6,1.3,4-0.2,5.5c-0.7,0.7-1.7,1-2.6,1c-1,0-2.1-0.4-2.8-1.3L85.7,93.9c-1-1.1-3.3-1.6-4.7-1l-3.7,1.7
	c-3.1,1.4-8.1,3.1-11.4,4l-14,3.6c-3.9,1-9.5,0.5-13.2-1.1L5.3,86.4c-2.8-1.2-4.7-3.4-5.2-5.9c-0.4-2.1,0.3-4.3,1.9-5.9
	c2.6-2.6,7.7-4.1,12-3.5l32.6,4.7c1.9,0.3,5.1-0.8,6.5-2.2l2-2.1H44.9c-5.2,0-9.5-4.3-9.5-9.7v-1.2c0-5.3,4.3-9.7,9.5-9.7h38.8
	c4.1,0,9.5,2.3,12.4,5.2l14.8,15.1C112.4,72.9,112.4,75.4,110.9,76.9z M95.7,7.7h-15v34.5c0,2.1-1.7,3.9-3.8,3.9H26.6
	c-2.1,0-3.8-1.7-3.8-3.9V7.7h-4.9v21.7c0,2.1-1.7,3.9-3.8,3.9c-2.1,0-3.8-1.7-3.8-3.9V7.7H7.8C5.7,7.7,4,6,4,3.9S5.7,0,7.8,0h87.9
	c2.1,0,3.8,1.7,3.8,3.9S97.8,7.7,95.7,7.7z M73,7.7H30.4v30.6H73V7.7z"/>
</svg>
