<?xml version="1.0" encoding="utf-8"?>
<!-- Generator: Adobe Illustrator 19.1.1, SVG Export Plug-In . SVG Version: 6.00 Build 0)  -->
<svg version="1.1" id="Layer_1" xmlns="http://www.w3.org/2000/svg" xmlns:xlink="http://www.w3.org/1999/xlink" x="0px" y="0px"
	 viewBox="0 0 120 110" style="enable-background:new 0 0 120 110;" xml:space="preserve">
<style type="text/css">
	.st0{fill-rule:evenodd;clip-rule:evenodd;fill:#135BAA;}
</style>
<path class="st0" d="M120,53.4l-10.5,2L104.9,70l4,1.3l-5,16.1l-6.5-7.6l-9.3,2.9l5.1-16.4l3.7,1.2l3.2-10.3l-10.9,2.1l-3.1,10.2
	l-3-1.7c-1.6-0.9-15.8-8.7-29.2-12.9c-5.2-1.6-10.7-2.9-15.7-3.8l0.1,0.1c6.5,11.6,30.7,28.3,34,30.5c1.3,0.5,2.7,1.4,3.9,2.7
	c5.1,5.3,4.3,13.3,1.4,18.5C75,107.3,71,110,66.9,110c-0.8,0-1.5-0.1-2.2-0.2c-2-0.4-3.6-1.4-5-3c-1-1-10-10.3-19-18.3
	c-1.1,1.4-2.8,3.9-3.5,6.3c-1.2,3.9-1.7,10.1-1.7,10.1l-0.3,3.8l-3.2-7.1l-3.5,1.1l0.1-1.5c0-0.2,0.5-5.9,2.2-9.4
	c0.5-1,1.1-2.1,1.7-3c-1,0.7-2,1.6-2.8,2.5c-2.3,2.6-4.6,8-4.6,8.1l-0.8,2l-2.4-4.8l-6.2-1.5l1.4-1.3c0.3-0.3,7.5-6.8,9.3-8.1
	c0.4-0.3,1-0.7,1.7-1.2c1.4-0.9,3.3-2.2,4.5-3.2c-6.5-5.2-12.3-9.1-12.8-9.4c-3.3-1.9-5.3-4.5-5.8-7.5c-0.5-3.6,1.2-7.6,5.2-11.8
	l1.7-1.8l3.4,3.5c1.9-1.6,5.1-3.6,9-4.3c-5.9-1-10.2-1.4-10.5-1.4l-3.4-0.3L23,36.1L0,15.5L69.5,0l33.2,35.1
	c4.9-0.7,8.1,0.2,9.8,2.7c2,2.9,0.6,6.5,0,7.7L120,53.4z M101.9,74.9l-1.8-0.6l1.4,1.7L101.9,74.9z M11.8,18.6l9.9,8.9l0.1-0.4
	l1.6-0.3c0.8-0.2,8.1-1.6,17.5-1.6c7.7,0,14.8,1,20.9,2.9c17.7,5.6,32.3,20.2,32.9,20.9l1.2,1.2l-0.7,2.3l4.4-0.9
	c-0.7-1.3-0.9-2.9-0.5-4.4c0.6-1.8,2-3.2,3.8-3.7l-0.8-0.8l0,0l-2.2-2.4L67.6,6.2L11.8,18.6z M61.7,84.3l-0.4,2.2
	c-0.8,4.4-1.6,17.3,4.4,18.7c3.4,0.8,6.2-1.8,7.7-4.5c2.1-3.7,2.7-9.3-0.7-12.9c-2.3-2.4-3.5-1.7-3.9-1.5c-0.6,0.3-1.2,0.9-1.7,1.8
	c1,1,3,2.8,6.2,5.6l1.1,0.9l-0.3,1.4c-1.1,5.7-4.4,6.5-5.8,6.5c-3.1,0-6-2.7-7.2-6.9c-0.9-3.3,0.6-9.7,4.3-12.7
	c-5-3.5-9.7-7.2-13.8-10.5c-1.8,0.4-4.1,1.1-5.7,2.6c9.5,7.7,13.5,8.9,13.5,8.9L61.7,84.3z M65.6,93c0,0.5,0,0.9,0.1,1.2
	c0.7,2.4,1.9,3.4,2.5,3.4c0.2,0,0.6-0.4,1-1.4C67.9,95,66.7,94,65.6,93z M56.2,96.5c-0.3-3.6,0-7,0.2-9c-2.2-1-6.3-3.4-12.9-8.7
	c-0.7,1.7-1.1,3.3-1.3,4.6C46.3,87,51,91.4,56.2,96.5z M20.8,57.8c-1.8,2.3-2.6,4.3-2.4,6c0.2,1.5,1.4,2.9,3.4,4.1
	c0.8,0.4,5.8,3.9,11.8,8.6c0.3-1.1,0.8-2.4,1.9-4.3C31,68,26.1,63.2,20.8,57.8z M27.5,57.9c3.8,3.8,7.4,7.3,10.8,10.3
	c1.5-1.6,3.3-2.7,5.3-3.3c-3.9-3.8-6.8-7.2-8.7-10.2C31.8,55,29.1,56.6,27.5,57.9z M55.6,49.5c10.9,3.4,22.1,9,27.3,11.7l2.8-9.1
	C82,48.9,71.5,39.7,59.5,36c-11.9-3.8-25.5-2.1-30.2-1.3l-2.7,8.9C32.4,44.3,44.7,46.1,55.6,49.5z"/>
</svg>
