<?xml version="1.0" encoding="utf-8"?>
<!-- Generator: Adobe Illustrator 19.1.1, SVG Export Plug-In . SVG Version: 6.00 Build 0)  -->
<svg version="1.1" id="Layer_1" xmlns="http://www.w3.org/2000/svg" xmlns:xlink="http://www.w3.org/1999/xlink" x="0px" y="0px"
	 viewBox="0 0 132 110" style="enable-background:new 0 0 132 110;" xml:space="preserve">
<style type="text/css">
	.st0{fill:#135BAA;}
</style>
<path class="st0" d="M54.6,110c-18,0-34-8.8-44-22.5c-0.2-0.2-0.3-0.4-0.4-0.6C3.8,78,0,66.9,0,55c0-11.9,3.8-23,10.2-32
	c0.1-0.2,0.3-0.4,0.4-0.6C20.6,8.8,36.6,0,54.6,0l0,0c0,0,0,0,0,0c21.8,0,41.5,13.1,50.2,33.3c0.7,1.5,0,3.3-1.6,4
	c-1.5,0.7-3.3,0-4-1.6c-1.1-2.7-2.5-5.2-4-7.6c-6,1.9-12.3,3.3-18.8,4.3c1.1,6.1,1.8,12.7,2,19.5h4.4c1.7,0,3,1.4,3,3
	c0,1.7-1.4,3-3,3h-4.4c-0.3,13.1-2.5,25.4-6.3,34.8C67.7,103.9,61.5,110,54.6,110z M40.1,82.7c3.5,13.2,9.2,21.2,14.5,21.2
	c5.3,0,11-8,14.5-21.2C59.5,81.7,49.7,81.7,40.1,82.7z M17.9,87.1c6.3,7.3,14.7,12.7,24.2,15.2c-1.8-2.5-3.5-5.7-5-9.4
	c-1.1-2.9-2.2-6-3-9.4C28.5,84.4,23.1,85.5,17.9,87.1z M6.1,58C6.7,66.8,9.5,75,14,81.9c6-1.9,12.3-3.3,18.8-4.3
	c-1.1-6.1-1.8-12.7-2-19.5L6.1,58L6.1,58z M36.9,58c0.2,6.8,0.8,13.1,1.9,18.7c10.4-1.1,21.2-1.1,31.6,0c1.1-5.6,1.8-11.9,1.9-18.7
	L36.9,58L36.9,58z M36.9,52h35.4c-0.2-6.8-0.8-13.1-1.9-18.7c-10.4,1.1-21.2,1.1-31.6,0C37.7,38.8,37,45.1,36.9,52z M6.1,52h24.7
	c0.2-6.8,0.8-13.4,2-19.5C26.3,31.4,20,30,14,28.1C9.5,35,6.7,43.2,6.1,52z M40.1,27.3c9.5,1,19.4,1,28.9,0
	C65.6,14.1,59.9,6.1,54.6,6.1C49.3,6.1,43.6,14.1,40.1,27.3z M67.1,7.7c1.8,2.5,3.5,5.7,5,9.4c1.1,2.9,2.2,6,3,9.4
	c5.6-0.8,11-2,16.2-3.6C84.9,15.5,76.5,10.2,67.1,7.7z M17.9,22.9c5.2,1.5,10.6,2.7,16.2,3.5c0.8-3.3,1.9-6.5,3-9.4
	c1.5-3.7,3.2-6.9,5-9.4C32.6,10.3,24.2,15.7,17.9,22.9z M78.9,109.8c-0.2,0-0.5,0-0.7-0.1c-0.2-0.1-0.5-0.2-0.7-0.3
	c-0.5-0.3-0.9-0.6-1.1-1.1c-0.2-0.3-0.3-0.7-0.4-1.1c-0.1-0.3-0.1-0.7,0-1.1c0-0.2,0.1-0.5,0.2-0.7l5.8-14.3
	c2.7-6.6,7.4-15.3,18.2-15.3h7.7c10.8,0,15.5,8.8,18.2,15.3l5.8,14.4c0.6,1.6-0.1,3.3-1.7,4c0,0,0,0,0,0c0,0,0,0,0,0c0,0,0,0,0,0
	c0,0,0,0,0,0c0,0,0,0,0,0c0,0,0,0,0,0l0,0c0,0,0,0,0,0v0c0,0,0,0,0,0c0,0,0,0,0,0c0,0,0,0,0,0c0,0,0,0,0,0c0,0,0,0,0,0
	c-0.4,0.1-0.7,0.2-1.1,0.2L78.9,109.8C79,109.8,78.9,109.8,78.9,109.8z M83.4,103.7h41.1l-4.1-10.2c-3.3-8.1-7-11.5-12.6-11.5h-7.7
	c-5.6,0-9.3,3.5-12.6,11.5L83.4,103.7z M103.9,71c-7.3,0-13.2-6-13.2-13.3c0-7.3,5.9-13.3,13.2-13.3c7.3,0,13.2,6,13.2,13.3
	C117.2,65.1,111.2,71,103.9,71z M103.9,50.5c-4,0-7.2,3.2-7.2,7.2c0,4,3.2,7.2,7.2,7.2c4,0,7.2-3.2,7.2-7.2
	C111.1,53.8,107.9,50.5,103.9,50.5z"/>
</svg>
